<svg width="18" height="24" viewBox="0 0 18 24" fill="none" xmlns="http://www.w3.org/2000/svg">
<path d="M7 10C6.20435 10 5.44129 10.3161 4.87868 10.8787C4.31607 11.4413 4 12.2044 4 13C4 13.7957 4.31607 14.5587 4.87868 15.1213C5.44129 15.684 6.20435 16 7 16H11C11.7957 16 12.5587 15.684 13.1213 15.1213C13.6839 14.5587 14 13.7957 14 13C14 12.2044 13.6839 11.4413 13.1213 10.8787C12.5587 10.3161 11.7957 10 11 10H7ZM12 13C12 13.2652 11.8946 13.5196 11.7071 13.7071C11.5196 13.8947 11.2652 14 11 14H7C6.73478 14 6.48043 13.8947 6.29289 13.7071C6.10536 13.5196 6 13.2652 6 13C6 12.7348 6.10536 12.4804 6.29289 12.2929C6.48043 12.1054 6.73478 12 7 12H11C11.2652 12 11.5196 12.1054 11.7071 12.2929C11.8946 12.4804 12 12.7348 12 13ZM14 19C14 19.2652 13.8946 19.5196 13.7071 19.7071C13.5196 19.8947 13.2652 20 13 20H5C4.73478 20 4.48043 19.8947 4.29289 19.7071C4.10536 19.5196 4 19.2652 4 19C4 18.7348 4.10536 18.4805 4.29289 18.2929C4.48043 18.1054 4.73478 18 5 18H13C13.2652 18 13.5196 18.1054 13.7071 18.2929C13.8946 18.4805 14 18.7348 14 19ZM16.536 3.12102L14.878 1.46502C14.4149 0.999267 13.864 0.629977 13.2572 0.378513C12.6504 0.127049 11.9998 -0.00159798 11.343 1.49812e-05H5C3.67441 0.00160284 2.40356 0.528897 1.46622 1.46624C0.528882 2.40357 0.00158786 3.67442 0 5.00002V19C0.00158786 20.3256 0.528882 21.5965 1.46622 22.5338C2.40356 23.4711 3.67441 23.9984 5 24H13C14.3256 23.9984 15.5964 23.4711 16.5338 22.5338C17.4711 21.5965 17.9984 20.3256 18 19V6.65702C18.0019 6.0001 17.8735 5.34934 17.6222 4.74239C17.3709 4.13543 17.0017 3.58435 16.536 3.12102ZM15.122 4.53502C15.2627 4.67745 15.3893 4.83317 15.5 5.00002H13V2.50002C13.1671 2.60954 13.3226 2.73587 13.464 2.87702L15.122 4.53502ZM16 19C16 19.7957 15.6839 20.5587 15.1213 21.1213C14.5587 21.684 13.7957 22 13 22H5C4.20435 22 3.44129 21.684 2.87868 21.1213C2.31607 20.5587 2 19.7957 2 19V5.00002C2 4.20437 2.31607 3.44131 2.87868 2.8787C3.44129 2.31609 4.20435 2.00002 5 2.00002H11V5.00002C11 5.53045 11.2107 6.03916 11.5858 6.41423C11.9609 6.7893 12.4696 7.00002 13 7.00002H16V19Z" fill="#2F2F2F"/>
</svg>
