<svg width="24" height="24" viewBox="0 0 24 24" fill="none" xmlns="http://www.w3.org/2000/svg">
<path d="M11.4524 14.0179C7.19063 14.4032 3.94378 18.0042 4.00036 22.283V22.4999C4.00036 23.3284 4.67194 23.9999 5.50036 23.9999C6.32878 23.9999 7.00036 23.3284 7.00036 22.4999V22.223C6.95527 19.5958 8.89402 17.3555 11.5004 17.023C14.2516 16.7502 16.7031 18.7593 16.9759 21.5105C16.992 21.6732 17.0002 21.8365 17.0003 22V22.4999C17.0003 23.3284 17.6719 23.9999 18.5003 23.9999C19.3288 23.9999 20.0003 23.3284 20.0003 22.4999V21.9999C19.9955 17.5767 16.4057 13.9949 11.9825 13.9998C11.8057 14 11.6288 14.006 11.4524 14.0179Z" fill="#2F2F2F"/>
<path d="M12.0004 12C15.3141 12 18.0004 9.31369 18.0004 6C18.0004 2.68631 15.3141 0 12.0004 0C8.68669 0 6.00037 2.68631 6.00037 6C6.00366 9.31233 8.68805 11.9967 12.0004 12ZM12.0004 3C13.6572 3 15.0004 4.34316 15.0004 6C15.0004 7.65684 13.6572 9 12.0004 9C10.3435 9 9.00037 7.65684 9.00037 6C9.00037 4.34316 10.3435 3 12.0004 3Z" fill="#2F2F2F"/>
</svg>
