<svg width="24" height="24" viewBox="0 0 24 24" fill="none" xmlns="http://www.w3.org/2000/svg">
<g clip-path="url(#clip0_1573_915)">
<path d="M6 0.75C3.10575 0.75 0.749998 3.44175 0.749998 6.75C0.724209 7.83798 0.988503 8.91321 1.51573 9.86525C2.04296 10.8173 2.81412 11.6118 3.75 12.1672V21C3.75 21.5967 3.98705 22.169 4.40901 22.591C4.83096 23.0129 5.40326 23.25 6 23.25C6.59674 23.25 7.16903 23.0129 7.59099 22.591C8.01294 22.169 8.25 21.5967 8.25 21V12.1672C9.18588 11.6118 9.95703 10.8173 10.4843 9.86525C11.0115 8.91321 11.2758 7.83798 11.25 6.75C11.25 3.44175 8.89425 0.75 6 0.75ZM7.2135 11.0017C7.07634 11.0584 6.95909 11.1546 6.87658 11.2779C6.79408 11.4013 6.75002 11.5463 6.75 11.6947V21C6.75 21.1989 6.67098 21.3897 6.53033 21.5303C6.38968 21.671 6.19891 21.75 6 21.75C5.80109 21.75 5.61032 21.671 5.46967 21.5303C5.32902 21.3897 5.25 21.1989 5.25 21V11.6947C5.24997 11.5463 5.20592 11.4013 5.12341 11.2779C5.0409 11.1546 4.92365 11.0584 4.7865 11.0017C3.9959 10.6167 3.33482 10.0093 2.88427 9.25409C2.43373 8.49888 2.2133 7.62863 2.25 6.75C2.25 4.26825 3.93225 2.25 6 2.25C8.06775 2.25 9.75 4.26825 9.75 6.75C9.78669 7.62863 9.56626 8.49888 9.11572 9.25409C8.66518 10.0093 8.0041 10.6167 7.2135 11.0017Z" fill="#2F2F2F"/>
<path d="M22.5 0.75C22.3011 0.75 22.1103 0.829018 21.9697 0.96967C21.829 1.11032 21.75 1.30109 21.75 1.5V9C21.75 9.59674 21.5129 10.169 21.091 10.591C20.669 11.0129 20.0967 11.25 19.5 11.25C19.3011 11.25 19.1103 11.329 18.9697 11.4697C18.829 11.6103 18.75 11.8011 18.75 12V21C18.75 21.1989 18.671 21.3897 18.5303 21.5303C18.3897 21.671 18.1989 21.75 18 21.75C17.8011 21.75 17.6103 21.671 17.4697 21.5303C17.329 21.3897 17.25 21.1989 17.25 21V12C17.25 11.8011 17.171 11.6103 17.0303 11.4697C16.8897 11.329 16.6989 11.25 16.5 11.25C15.9033 11.25 15.331 11.0129 14.909 10.591C14.4871 10.169 14.25 9.59674 14.25 9V1.5C14.25 1.30109 14.171 1.11032 14.0303 0.96967C13.8897 0.829018 13.6989 0.75 13.5 0.75C13.3011 0.75 13.1103 0.829018 12.9697 0.96967C12.829 1.11032 12.75 1.30109 12.75 1.5V9C12.751 9.86419 13.0499 10.7016 13.5964 11.3711C14.1429 12.0405 14.9035 12.5011 15.75 12.675V21C15.75 21.5967 15.9871 22.169 16.409 22.591C16.831 23.0129 17.4033 23.25 18 23.25C18.5967 23.25 19.169 23.0129 19.591 22.591C20.0129 22.169 20.25 21.5967 20.25 21V12.675C21.0965 12.5011 21.8571 12.0405 22.4036 11.3711C22.9501 10.7016 23.249 9.86419 23.25 9V1.5C23.25 1.30109 23.171 1.11032 23.0303 0.96967C22.8897 0.829018 22.6989 0.75 22.5 0.75Z" fill="#2F2F2F"/>
<path d="M16.5 9.75C16.6989 9.75 16.8897 9.67098 17.0303 9.53033C17.171 9.38968 17.25 9.19891 17.25 9V1.5C17.25 1.30109 17.171 1.11032 17.0303 0.96967C16.8897 0.829018 16.6989 0.75 16.5 0.75C16.3011 0.75 16.1103 0.829018 15.9697 0.96967C15.829 1.11032 15.75 1.30109 15.75 1.5V9C15.75 9.19891 15.829 9.38968 15.9697 9.53033C16.1103 9.67098 16.3011 9.75 16.5 9.75Z" fill="#2F2F2F"/>
<path d="M19.5 9.75C19.6989 9.75 19.8897 9.67098 20.0303 9.53033C20.171 9.38968 20.25 9.19891 20.25 9V1.5C20.25 1.30109 20.171 1.11032 20.0303 0.96967C19.8897 0.829018 19.6989 0.75 19.5 0.75C19.3011 0.75 19.1103 0.829018 18.9697 0.96967C18.829 1.11032 18.75 1.30109 18.75 1.5V9C18.75 9.19891 18.829 9.38968 18.9697 9.53033C19.1103 9.67098 19.3011 9.75 19.5 9.75Z" fill="#2F2F2F"/>
</g>
<defs>
<clipPath id="clip0_1573_915">
<rect width="24" height="24" fill="white"/>
</clipPath>
</defs>
</svg>
