<svg width="24" height="24" viewBox="0 0 24 24" fill="none" xmlns="http://www.w3.org/2000/svg">
<path d="M20.1328 8.08594C20.1328 6.14742 18.5557 4.57031 16.6172 4.57031H14.4609V1.75781H9.53906V4.57031H7.38281C5.4443 4.57031 3.86719 6.14742 3.86719 8.08594V8.78906H20.1328V8.08594ZM10.9453 3.16406H13.0547V4.57031H10.9453V3.16406ZM5.39391 7.38281C5.68406 6.56433 6.46608 5.97656 7.38281 5.97656H16.6172C17.5339 5.97656 18.3159 6.56433 18.6061 7.38281H5.39391Z" fill="#2F2F2F"/>
<path d="M21.8906 11.6016H20.1328V10.1953H3.86719V11.6016H2.10938C0.946266 11.6016 0 12.5478 0 13.7109C0 14.874 0.946266 15.8203 2.10938 15.8203H3.86719V19.4297C3.86719 20.9805 5.12887 22.2422 6.67969 22.2422H17.3203C18.8711 22.2422 20.1328 20.9805 20.1328 19.4297V15.8203H21.8906C23.0537 15.8203 24 14.874 24 13.7109C24 12.5478 23.0537 11.6016 21.8906 11.6016ZM2.10938 14.4141C1.72167 14.4141 1.40625 14.0986 1.40625 13.7109C1.40625 13.3232 1.72167 13.0078 2.10938 13.0078H3.86719V14.4141H2.10938ZM18.7266 19.4297C18.7266 20.2051 18.0957 20.8359 17.3203 20.8359H6.67969C5.90428 20.8359 5.27344 20.2051 5.27344 19.4297V11.6016H18.7266V19.4297ZM21.8906 14.4141H20.1328V13.0078H21.8906C22.2783 13.0078 22.5938 13.3232 22.5938 13.7109C22.5938 14.0986 22.2783 14.4141 21.8906 14.4141Z" fill="#2F2F2F"/>
</svg>
